#!OML:ASF H:\Terrain\Patient Classification 1\Takeo\Monday\TakeoMonday.ASF
:FULLY-SPECIFIED
:DEGREES
1607
root 8.66555 17.7924 0.579444 -10.1618 28.5269 -9.08968
lowerback 9.44935 -0.0507616 4.49044
upperback -1.07789 0.181757 -4.52211
thorax -6.43731 -0.156898 -7.3943
lowerneck -3.92463 -7.81125 -6.94641
upperneck -24.8863 -8.7383 9.60585
head -6.10396 -4.14078 4.54169
rclavicle -1.68967e-014 -1.90833e-014
rhumerus 73.3301 -31.5173 -32.5663
rradius 29.7992
rwrist 1.37699
rhand -30.4441 27.6326
rfingers 7.12502
rthumb -3.7463 -2.31418
lclavicle -1.68967e-014 -1.90833e-014
lhumerus -42.341 9.48449 76.0525
lradius 36.2685
lwrist 30.3774
lhand -28.9738 15.4589
lfingers 7.12502
lthumb -2.32638 45.426
rfemur 2.97585 -8.00791 26.6712
rtibia 9.19218
rfoot -7.57393 -22.5784
rtoes 3.00472
lfemur 1.83121 -7.61448 -11.4156
ltibia 24.325
lfoot -16.395 15.4962
ltoes -9.73997
1608
root 8.67616 17.7863 0.597267 -10.2788 28.5997 -9.306
lowerback 9.33956 -0.0597239 4.78724
upperback -1.14834 0.19769 -4.5604
thorax -6.44818 -0.163434 -7.61098
lowerneck -3.85675 -7.83726 -6.81261
upperneck -24.8166 -8.79655 9.50512
head -6.10106 -4.17486 4.48841
rclavicle -4.77083e-015 -6.36111e-015
rhumerus 72.8555 -31.4924 -32.3091
rradius 30.3929
rwrist 0.99128
rhand -30.93 27.4543
rfingers 7.12502
rthumb -4.21554 -2.4837
lclavicle -4.77083e-015 -6.36111e-015
lhumerus -42.3485 9.82049 75.7939
lradius 35.9847
lwrist 29.9765
lhand -28.646 16.0325
lfingers 7.12502
lthumb -2.00987 46.0028
rfemur 3.13638 -8.10822 26.8396
rtibia 9.10391
rfoot -7.68737 -22.5809
rtoes 2.69799
lfemur 1.88304 -7.63334 -11.2138
ltibia 24.3336
lfoot -16.5437 15.4143
ltoes -9.85592
1609
root 8.6886 17.7879 0.614434 -10.385 28.7018 -9.38338
lowerback 9.2188 -0.0745662 4.94834
upperback -1.1582 0.189864 -4.60528
thorax -6.3917 -0.172299 -7.75044
lowerneck -3.66116 -7.84275 -6.69933
upperneck -24.9107 -8.82555 9.42822
head -6.1721 -4.19483 4.45962
rclavicle -2.5842e-015 3.18055e-015
rhumerus 72.0214 -31.4294 -31.2582
rradius 31.0174
rwrist -0.0593516
rhand -31.6517 27.2398
rfingers 7.12502
rthumb -4.91244 -2.68326
lclavicle -2.5842e-015 3.18055e-015
lhumerus -42.4715 10.005 75.634
lradius 35.9164
lwrist 29.7286
lhand -28.437 16.321
lfingers 7.12502
lthumb -1.808 46.2931
rfemur 3.19549 -8.22109 26.8458
rtibia 9.34398
rfoot -7.91672 -22.5403
rtoes 2.19134
lfemur 2.053 -7.72785 -11.1828
ltibia 24.2395
lfoot -16.5623 15.3705
ltoes -10.1367
1610
root 8.69828 17.7947 0.63027 -10.3006 28.9166 -9.04682
lowerback 9.07495 -0.122873 4.63539
upperback -1.05097 0.080725 -4.72796
thorax -6.21322 -0.206653 -7.67988
lowerneck -3.80391 -7.79079 -6.47148
upperneck -24.9732 -8.75928 9.28598
head -6.19449 -4.16739 4.3733
rclavicle -4.94974e-014 -2.8625e-014
rhumerus 71.9379 -31.4111 -31.0832
rradius 31.3915
rwrist -0.507373
rhand -32.3544 27.7989
rfingers 7.12502
rthumb -5.59092 -2.10737
lclavicle -4.94974e-014 -2.8625e-014
lhumerus -42.374 10.1455 75.5554
lradius 35.8476
lwrist 29.629
lhand -28.5591 15.9893
lfingers 7.12502
lthumb -1.92593 45.9603
rfemur 3.31446 -8.37919 26.4519
rtibia 9.50498
rfoot -8.08225 -22.4923
rtoes 1.63841
lfemur 2.22765 -7.94382 -11.5911
ltibia 24.1334
lfoot -16.5352 15.4417
ltoes -10.0343
1611
root 8.70193 17.798 0.646444 -10.167 29.0122 -8.81913
lowerback 8.88508 -0.129002 4.34872
upperback -0.975405 0.0343168 -4.79097
thorax -6.0314 -0.211366 -7.56827
lowerneck -4.0443 -7.74529 -6.06555
upperneck -24.9913 -8.74094 8.88763
head -6.20794 -4.15845 4.17116
rclavicle 1.19271e-015 -1.90833e-014
rhumerus 72.0007 -31.3994 -31.2462
rradius 31.8003
rwrist -0.798112
rhand -32.8954 28.3495
rfingers 7.12502
rthumb -6.11319 -1.54231
lclavicle 1.19271e-015 -1.90833e-014
lhumerus -42.1811 10.0794 75.6063
lradius 35.7467
lwrist 29.7654
lhand -28.6216 15.8799
lfingers 7.12502
lthumb -1.98622 45.8504
rfemur 3.28691 -8.42916 26.2423
rtibia 9.7129
rfoot -8.46217 -22.3948
rtoes 3.27545
lfemur 2.33628 -8.0356 -11.8252
ltibia 23.9291
lfoot -16.3807 15.4858
ltoes -9.8115
1612
root 8.70135 17.7939 0.664281 -10.1987 29.042 -9.12254
lowerback 8.66222 -0.0820027 4.49552
upperback -1.02294 0.112594 -4.67533
thorax -5.94213 -0.173846 -7.53425
lowerneck -4.00512 -7.77852 -5.87211
upperneck -25.1098 -8.84202 8.54348
head -6.27746 -4.19599 4.03961
rclavicle -3.24019e-014 -1.59028e-014
rhumerus 71.1879 -31.356 -30.2559
rradius 32.5148
rwrist -1.86098
rhand -33.0742 28.4067
rfingers 7.12502
rthumb -6.28583 -1.48006
lclavicle -3.24019e-014 -1.59028e-014
lhumerus -42.2708 9.85515 75.8013
lradius 35.8456
lwrist 30.0088
lhand -28.3987 15.3639
lfingers 7.12502
lthumb -1.771 45.3363
rfemur 3.12515 -8.48962 26.5968
rtibia 9.89751
rfoot -8.87197 -22.3393
rtoes 5.20948
lfemur 2.34625 -8.01409 -11.4613
ltibia 23.6644
lfoot -16.1212 15.3944
ltoes -10.2716
1613
root 8.70514 17.7964 0.684986 -10.2696 29.1858 -9.20863
lowerback 8.56039 -0.0543474 4.43865
upperback -1.04648 0.144064 -4.60962
thorax -5.9036 -0.154378 -7.4317
lowerneck -3.99691 -7.76397 -5.75257
upperneck -25.1543 -8.863 8.28857
head -6.31425 -4.19564 3.94236
rclavicle 3.51849e-014 1.27222e-014
rhumerus 70.3802 -31.3091 -29.2165
rradius 33.1844
rwrist -2.74999
rhand -33.2014 28.8367
rfingers 7.12502
rthumb -6.40869 -1.04635
lclavicle 3.51849e-014 1.27222e-014
lhumerus -42.274 10.0101 75.8365
lradius 35.758
lwrist 29.9444
lhand -28.4392 14.7984
lfingers 7.12502
lthumb -1.81011 44.7705
rfemur 3.26984 -8.64179 26.6618
rtibia 9.7515
rfoot -8.97977 -22.3893
rtoes 4.97132
lfemur 2.50167 -8.20019 -11.3975
ltibia 23.4571
lfoot -16.0891 15.3533
ltoes -10.3656
1614
root 8.71434 17.8029 0.704459 -10.212 29.3104 -8.95033
lowerback 8.5245 -0.0202264 4.13212
upperback -1.10231 0.15389 -4.65089
thorax -5.94038 -0.142318 -7.29976
lowerneck -3.91248 -7.68665 -5.56997
upperneck -25.0841 -8.81107 8.01417
head -6.3354 -4.16838 3.82612
rclavicle 5.14852e-014 -1.59028e-014
rhumerus 69.9007 -31.1457 -28.8063
rradius 33.7973
rwrist -3.06619
rhand -33.6443 29.5897
rfingers 7.12502
rthumb -6.83621 -0.279905
lclavicle 5.14852e-014 -1.59028e-014
lhumerus -42.2897 10.2583 75.7356
lradius 35.5398
lwrist 29.608
lhand -28.4328 14.819
lfingers 7.12502
lthumb -1.80393 44.7911
rfemur 3.44203 -8.72418 26.3682
rtibia 9.62538
rfoot -8.94053 -22.4134
rtoes 3.88566
lfemur 2.76233 -8.48055 -11.7392
ltibia 23.2357
lfoot -16.1579 15.5275
ltoes -10.3544
1615
root 8.72532 17.807 0.721136 -10.2352 29.3684 -8.83517
lowerback 8.49842 0.0292114 4.05113
upperback -1.14253 0.208908 -4.68162
thorax -5.95957 -0.114452 -7.29377
lowerneck -3.72595 -7.6676 -5.4555
upperneck -25.1148 -8.82644 7.83311
head -6.39233 -4.17421 3.76054
rclavicle -3.73715e-014 2.54444e-014
rhumerus 69.327 -30.9675 -28.4717
rradius 34.5549
rwrist -3.25215
rhand -34.1847 29.9828
rfingers 7.12502
rthumb -7.35782 0.130743
lclavicle -3.73715e-014 2.54444e-014
lhumerus -42.4616 10.1336 75.7734
lradius 35.6607
lwrist 29.4875
lhand -28.1635 15.0011
lfingers 7.12502
lthumb -1.5438 44.9753
rfemur 3.43716 -8.76444 26.207
rtibia 9.92201
rfoot -9.13121 -22.3636
rtoes 3.41579
lfemur 3.09591 -8.69294 -11.9229
ltibia 22.9332
lfoot -16.1493 15.6732
ltoes -10.5736
1616
root 8.73682 17.8082 0.73703 -10.2609 29.4694 -8.65294
lowerback 8.49977 0.0602778 3.97981
upperback -1.15962 0.239086 -4.75719
thorax -5.97388 -0.099155 -7.33908
lowerneck -3.62493 -7.68654 -5.45238
upperneck -25.0534 -8.87094 7.77778
head -6.38984 -4.19406 3.74527
rclavicle -5.02925e-014 3.18055e-015
rhumerus 68.8175 -30.8339 -28.3414
rradius 35.3555
rwrist -3.40782
rhand -34.4392 30.3601
rfingers 7.12502
rthumb -7.60347 0.516776
lclavicle -5.02925e-014 3.18055e-015
lhumerus -42.512 10.0199 75.7908
lradius 35.689
lwrist 29.4494
lhand -28.0653 15.2451
lfingers 7.12502
lthumb -1.44896 45.2199
rfemur 3.5041 -8.83874 25.9497
rtibia 10.3247
rfoot -9.7358 -22.2155
rtoes 4.95025
lfemur 3.42067 -8.74249 -12.1289
ltibia 22.6785
lfoot -16.1018 15.593
ltoes -10.3434
1617
root 8.74739 17.8039 0.749409 -10.1582 29.6204 -8.38663
lowerback 8.49057 0.0614219 3.80091
upperback -1.24992 0.215223 -4.85111
thorax -6.06854 -0.111817 -7.33626
lowerneck -3.51174 -7.69635 -5.46707
upperneck -24.9213 -8.89859 7.76952
head -6.36352 -4.20984 3.74499
rclavicle 6.2816e-014 -5.40694e-014
rhumerus 68.2887 -30.621 -28.0942
rradius 36.209
rwrist -3.951
rhand -34.7611 30.8623
rfingers 7.12502
rthumb -7.9142 1.03042
lclavicle 6.2816e-014 -5.40694e-014
lhumerus -42.6735 10.0274 75.6798
lradius 35.596
lwrist 29.3219
lhand -27.9103 15.3414
lfingers 7.12502
lthumb -1.29924 45.3172
rfemur 3.54632 -9.0566 25.652
rtibia 10.6316
rfoot -9.97849 -22.01
rtoes 6.36904
lfemur 3.55991 -8.69448 -12.3969
ltibia 22.5614
lfoot -16.0565 15.4736
ltoes -9.98839
1618
root 8.75439 17.8003 0.760597 -10.0652 29.7343 -8.20986
lowerback 8.49572 0.0502753 3.60808
upperback -1.33827 0.176422 -4.88565
thorax -6.17136 -0.130334 -7.25887
lowerneck -3.47853 -7.66581 -5.40174
upperneck -24.8254 -8.87309 7.6992
head -6.34711 -4.2003 3.70919
rclavicle 7.37491e-014 0
rhumerus 67.7818 -30.2961 -27.6847
rradius 37.0615
rwrist -4.62306
rhand -35.4646 30.9621
rfingers 7.12502
rthumb -8.59315 1.15698
lclavicle 7.37491e-014 0
lhumerus -43.0806 9.77416 75.7066
lradius 35.9022
lwrist 29.5855
lhand -28.1362 15.6873
lfingers 7.12502
lthumb -1.5175 45.6616
rfemur 3.48056 -9.18112 25.4864
rtibia 10.8523
rfoot -9.71509 -22.0421
rtoes 5.00128
lfemur 3.57148 -8.73089 -12.6053
ltibia 22.5863
lfoot -16.0171 15.5274
ltoes -10.2848
1619
root 8.75979 17.7968 0.773793 -10.0717 29.8036 -8.26556
lowerback 8.41352 0.0517089 3.57849
upperback -1.36334 0.176648 -4.82501
thorax -6.15078 -0.127977 -7.17413
lowerneck -3.55605 -7.59209 -5.26687
upperneck -24.7576 -8.81199 7.4438
head -6.33871 -4.16308 3.59933
rclavicle -3.67752e-014 -3.18055e-014
rhumerus 67.4279 -30.0309 -27.469
rradius 37.8705
rwrist -4.88001
rhand -36.0248 30.8946
rfingers 7.12502
rthumb -9.1337 1.11241
lclavicle -3.67752e-014 -3.18055e-014
lhumerus -43.2587 9.5006 75.9078
lradius 36.2029
lwrist 29.9855
lhand -28.4642 16.1657
lfingers 7.12502
lthumb -1.83429 46.1376
rfemur 3.45633 -9.18354 25.5388
rtibia 10.8216
rfoot -9.41782 -22.2281
rtoes 3.35023
lfemur 3.47684 -8.79439 -12.5708
ltibia 22.7514
lfoot -16.1005 15.5434
ltoes -10.6029
1620
root 8.76706 17.795 0.787879 -10.145 29.8861 -8.44647
lowerback 8.29609 0.0727981 3.72161
upperback -1.36655 0.22135 -4.7598
thorax -6.08033 -0.107677 -7.1895
lowerneck -3.59785 -7.57839 -5.14578
upperneck -24.6838 -8.83522 7.19286
head -6.32792 -4.16609 3.49622
rclavicle 3.93594e-014 4.45278e-014
rhumerus 66.907 -29.9121 -27.1913
rradius 38.7995
rwrist -5.05154
rhand -36.2954 31.102
rfingers 7.12502
rthumb -9.39484 1.33133
lclavicle 3.93594e-014 4.45278e-014
lhumerus -43.1387 9.29316 76.0702
lradius 36.2081
lwrist 30.1172
lhand -28.4719 16.3077
lfingers 7.12502
lthumb -1.84172 46.2795
rfemur 3.62732 -9.16724 25.7189
rtibia 10.442
rfoot -9.1009 -22.4862
rtoes 2.68834
lfemur 3.38316 -8.87408 -12.4031
ltibia 22.9809
lfoot -16.3754 15.3396
ltoes -10.3145
1621
root 8.77423 17.7963 0.79949 -10.2584 29.9667 -8.58743
lowerback 8.27223 0.118868 3.87215
upperback -1.36253 0.298991 -4.74872
thorax -6.0505 -0.0733907 -7.27461
lowerneck -3.63405 -7.65512 -5.09195
upperneck -24.5428 -8.95116 7.13076
head -6.2757 -4.22328 3.46281
rclavicle 5.56597e-014 -3.18055e-015
rhumerus 66.2209 -29.8146 -26.7417
rradius 39.7637
rwrist -5.40411
rhand -36.6147 31.22
rfingers 7.12502
rthumb -9.70293 1.46351
lclavicle 5.56597e-014 -3.18055e-015
lhumerus -43.0859 8.9886 76.146
lradius 36.2241
lwrist 30.153
lhand -28.3559 15.9617
lfingers 7.12502
lthumb -1.72962 45.9345
rfemur 3.95728 -9.12922 25.8658
rtibia 9.92768
rfoot -8.76533 -22.7229
rtoes 2.11568
lfemur 3.35619 -8.97749 -12.2905
ltibia 23.195
lfoot -16.5243 15.1938
ltoes -10.3486
